<mxfile host="app.diagrams.net" modified="2024-04-06T14:37:59.917Z" agent="Mozilla/5.0 (Windows NT 10.0; Win64; x64; rv:124.0) Gecko/20100101 Firefox/124.0" etag="3iV9f_Wt9PBIYjMXaw1f" version="24.2.2" type="github">
  <diagram name="Page-1" id="hFF87aVBNNckT51f4aF9">
    <mxGraphModel dx="1290" dy="605" grid="1" gridSize="10" guides="1" tooltips="1" connect="1" arrows="1" fold="1" page="1" pageScale="1" pageWidth="827" pageHeight="1169" math="0" shadow="0">
      <root>
        <mxCell id="0" />
        <mxCell id="1" parent="0" />
        <mxCell id="SiMttqf032CdRBXON2kf-3" style="edgeStyle=orthogonalEdgeStyle;rounded=0;orthogonalLoop=1;jettySize=auto;html=1;entryX=0.5;entryY=0;entryDx=0;entryDy=0;" parent="1" source="SiMttqf032CdRBXON2kf-1" target="SiMttqf032CdRBXON2kf-2" edge="1">
          <mxGeometry relative="1" as="geometry" />
        </mxCell>
        <mxCell id="SiMttqf032CdRBXON2kf-1" value="" style="ellipse;whiteSpace=wrap;html=1;fillColor=#000000;" parent="1" vertex="1">
          <mxGeometry x="80" y="40" width="40" height="40" as="geometry" />
        </mxCell>
        <mxCell id="SiMttqf032CdRBXON2kf-5" style="edgeStyle=orthogonalEdgeStyle;rounded=0;orthogonalLoop=1;jettySize=auto;html=1;entryX=0.5;entryY=0;entryDx=0;entryDy=0;" parent="1" source="SiMttqf032CdRBXON2kf-2" target="SiMttqf032CdRBXON2kf-4" edge="1">
          <mxGeometry relative="1" as="geometry" />
        </mxCell>
        <mxCell id="SiMttqf032CdRBXON2kf-2" value="register" style="rounded=0;whiteSpace=wrap;html=1;fillColor=#FFD966;" parent="1" vertex="1">
          <mxGeometry x="40" y="160" width="120" height="60" as="geometry" />
        </mxCell>
        <mxCell id="SiMttqf032CdRBXON2kf-18" style="edgeStyle=orthogonalEdgeStyle;rounded=0;orthogonalLoop=1;jettySize=auto;html=1;entryX=0;entryY=0.5;entryDx=0;entryDy=0;" parent="1" source="SiMttqf032CdRBXON2kf-4" target="SiMttqf032CdRBXON2kf-17" edge="1">
          <mxGeometry relative="1" as="geometry" />
        </mxCell>
        <mxCell id="SiMttqf032CdRBXON2kf-4" value="&lt;div&gt;Login &lt;br&gt;&lt;/div&gt;&lt;div&gt;Username/ password&lt;br&gt;&lt;/div&gt;" style="rounded=0;whiteSpace=wrap;html=1;fillColor=#FFD966;" parent="1" vertex="1">
          <mxGeometry x="40" y="280" width="120" height="60" as="geometry" />
        </mxCell>
        <mxCell id="SiMttqf032CdRBXON2kf-6" value="is registered" style="text;html=1;align=center;verticalAlign=middle;resizable=0;points=[];autosize=1;strokeColor=none;fillColor=none;" parent="1" vertex="1">
          <mxGeometry x="90" y="238" width="90" height="30" as="geometry" />
        </mxCell>
        <mxCell id="SiMttqf032CdRBXON2kf-11" style="edgeStyle=orthogonalEdgeStyle;rounded=0;orthogonalLoop=1;jettySize=auto;html=1;exitX=1;exitY=0.75;exitDx=0;exitDy=0;entryX=0.75;entryY=0;entryDx=0;entryDy=0;" parent="1" source="SiMttqf032CdRBXON2kf-2" target="SiMttqf032CdRBXON2kf-2" edge="1">
          <mxGeometry relative="1" as="geometry">
            <Array as="points">
              <mxPoint x="180" y="205" />
              <mxPoint x="180" y="130" />
              <mxPoint x="130" y="130" />
            </Array>
          </mxGeometry>
        </mxCell>
        <mxCell id="SiMttqf032CdRBXON2kf-12" value="not registered" style="text;html=1;align=center;verticalAlign=middle;resizable=0;points=[];autosize=1;strokeColor=none;fillColor=none;" parent="1" vertex="1">
          <mxGeometry x="140" y="100" width="90" height="30" as="geometry" />
        </mxCell>
        <mxCell id="SiMttqf032CdRBXON2kf-16" style="edgeStyle=orthogonalEdgeStyle;rounded=0;orthogonalLoop=1;jettySize=auto;html=1;entryX=0;entryY=0.5;entryDx=0;entryDy=0;" parent="1" source="SiMttqf032CdRBXON2kf-13" target="SiMttqf032CdRBXON2kf-15" edge="1">
          <mxGeometry relative="1" as="geometry">
            <Array as="points">
              <mxPoint x="300" y="110" />
            </Array>
          </mxGeometry>
        </mxCell>
        <mxCell id="SiMttqf032CdRBXON2kf-13" value="Overview/ Home page" style="rounded=0;whiteSpace=wrap;html=1;fillColor=#FFD966;" parent="1" vertex="1">
          <mxGeometry x="240" y="160" width="120" height="60" as="geometry" />
        </mxCell>
        <mxCell id="SiMttqf032CdRBXON2kf-24" style="edgeStyle=orthogonalEdgeStyle;rounded=0;orthogonalLoop=1;jettySize=auto;html=1;entryX=0.5;entryY=0;entryDx=0;entryDy=0;" parent="1" source="SiMttqf032CdRBXON2kf-15" target="SiMttqf032CdRBXON2kf-23" edge="1">
          <mxGeometry relative="1" as="geometry" />
        </mxCell>
        <mxCell id="SiMttqf032CdRBXON2kf-29" style="edgeStyle=orthogonalEdgeStyle;rounded=0;orthogonalLoop=1;jettySize=auto;html=1;entryX=0.5;entryY=0;entryDx=0;entryDy=0;" parent="1" source="SiMttqf032CdRBXON2kf-15" target="SiMttqf032CdRBXON2kf-28" edge="1">
          <mxGeometry relative="1" as="geometry" />
        </mxCell>
        <mxCell id="SiMttqf032CdRBXON2kf-15" value="&lt;div&gt;Search properties/ &lt;br&gt;&lt;/div&gt;&lt;div&gt;filter props&lt;br&gt;&lt;/div&gt;" style="rounded=0;whiteSpace=wrap;html=1;fillColor=#FFD966;" parent="1" vertex="1">
          <mxGeometry x="400" y="80" width="120" height="60" as="geometry" />
        </mxCell>
        <mxCell id="SiMttqf032CdRBXON2kf-19" style="edgeStyle=orthogonalEdgeStyle;rounded=0;orthogonalLoop=1;jettySize=auto;html=1;entryX=0;entryY=0.5;entryDx=0;entryDy=0;" parent="1" source="SiMttqf032CdRBXON2kf-17" target="SiMttqf032CdRBXON2kf-13" edge="1">
          <mxGeometry relative="1" as="geometry">
            <Array as="points">
              <mxPoint x="220" y="190" />
            </Array>
          </mxGeometry>
        </mxCell>
        <mxCell id="SiMttqf032CdRBXON2kf-17" value="Authenticate" style="rounded=0;whiteSpace=wrap;html=1;fillColor=#FFD966;" parent="1" vertex="1">
          <mxGeometry x="120" y="380" width="120" height="60" as="geometry" />
        </mxCell>
        <mxCell id="SiMttqf032CdRBXON2kf-20" style="edgeStyle=orthogonalEdgeStyle;rounded=0;orthogonalLoop=1;jettySize=auto;html=1;entryX=0.75;entryY=1;entryDx=0;entryDy=0;" parent="1" source="SiMttqf032CdRBXON2kf-17" target="SiMttqf032CdRBXON2kf-17" edge="1">
          <mxGeometry relative="1" as="geometry">
            <Array as="points">
              <mxPoint x="260" y="410" />
              <mxPoint x="260" y="460" />
              <mxPoint x="210" y="460" />
            </Array>
          </mxGeometry>
        </mxCell>
        <mxCell id="SiMttqf032CdRBXON2kf-21" value="&lt;div&gt;authentication failed&lt;/div&gt;&lt;div&gt;{failure threshold &amp;lt;= 3}&lt;br&gt;&lt;/div&gt;" style="text;html=1;align=center;verticalAlign=middle;resizable=0;points=[];autosize=1;strokeColor=none;fillColor=none;" parent="1" vertex="1">
          <mxGeometry x="155" y="460" width="140" height="40" as="geometry" />
        </mxCell>
        <mxCell id="SiMttqf032CdRBXON2kf-22" value="&lt;div&gt;authentication successful&lt;/div&gt;&lt;div&gt;/ Login successful&lt;br&gt;&lt;/div&gt;" style="text;html=1;align=center;verticalAlign=middle;resizable=0;points=[];autosize=1;strokeColor=none;fillColor=none;" parent="1" vertex="1">
          <mxGeometry x="210" y="290" width="160" height="40" as="geometry" />
        </mxCell>
        <mxCell id="SiMttqf032CdRBXON2kf-33" style="edgeStyle=orthogonalEdgeStyle;rounded=0;orthogonalLoop=1;jettySize=auto;html=1;entryX=0.5;entryY=1;entryDx=0;entryDy=0;" parent="1" source="SiMttqf032CdRBXON2kf-23" target="SiMttqf032CdRBXON2kf-28" edge="1">
          <mxGeometry relative="1" as="geometry" />
        </mxCell>
        <mxCell id="SiMttqf032CdRBXON2kf-23" value="add proposal " style="rounded=0;whiteSpace=wrap;html=1;fillColor=#FFD966;" parent="1" vertex="1">
          <mxGeometry x="400" y="200" width="120" height="60" as="geometry" />
        </mxCell>
        <mxCell id="SiMttqf032CdRBXON2kf-25" value="property selected" style="text;html=1;align=center;verticalAlign=middle;resizable=0;points=[];autosize=1;strokeColor=none;fillColor=none;" parent="1" vertex="1">
          <mxGeometry x="420" y="158" width="110" height="30" as="geometry" />
        </mxCell>
        <mxCell id="SiMttqf032CdRBXON2kf-26" style="edgeStyle=orthogonalEdgeStyle;rounded=0;orthogonalLoop=1;jettySize=auto;html=1;exitX=1;exitY=0.75;exitDx=0;exitDy=0;entryX=0.596;entryY=1.015;entryDx=0;entryDy=0;entryPerimeter=0;" parent="1" source="SiMttqf032CdRBXON2kf-23" target="SiMttqf032CdRBXON2kf-23" edge="1">
          <mxGeometry relative="1" as="geometry">
            <Array as="points">
              <mxPoint x="540" y="245" />
              <mxPoint x="540" y="290" />
              <mxPoint x="472" y="290" />
            </Array>
          </mxGeometry>
        </mxCell>
        <mxCell id="SiMttqf032CdRBXON2kf-27" value="proposal rejected" style="text;html=1;align=center;verticalAlign=middle;resizable=0;points=[];autosize=1;strokeColor=none;fillColor=none;" parent="1" vertex="1">
          <mxGeometry x="435" y="288" width="110" height="30" as="geometry" />
        </mxCell>
        <mxCell id="SiMttqf032CdRBXON2kf-35" style="edgeStyle=orthogonalEdgeStyle;rounded=0;orthogonalLoop=1;jettySize=auto;html=1;" parent="1" source="SiMttqf032CdRBXON2kf-28" target="SiMttqf032CdRBXON2kf-34" edge="1">
          <mxGeometry relative="1" as="geometry">
            <Array as="points">
              <mxPoint x="770" y="173" />
              <mxPoint x="770" y="260" />
              <mxPoint x="670" y="260" />
            </Array>
          </mxGeometry>
        </mxCell>
        <mxCell id="SiMttqf032CdRBXON2kf-28" value="&lt;div&gt;Payment&lt;/div&gt;&lt;div&gt;id, port&lt;br&gt;&lt;/div&gt;" style="rounded=0;whiteSpace=wrap;html=1;fillColor=#FFD966;" parent="1" vertex="1">
          <mxGeometry x="610" y="143" width="120" height="60" as="geometry" />
        </mxCell>
        <mxCell id="SiMttqf032CdRBXON2kf-30" value="property selected" style="text;html=1;align=center;verticalAlign=middle;resizable=0;points=[];autosize=1;strokeColor=none;fillColor=none;" parent="1" vertex="1">
          <mxGeometry x="535" y="78" width="110" height="30" as="geometry" />
        </mxCell>
        <mxCell id="SiMttqf032CdRBXON2kf-32" value="proposal accepted" style="text;html=1;align=center;verticalAlign=middle;resizable=0;points=[];autosize=1;strokeColor=none;fillColor=none;" parent="1" vertex="1">
          <mxGeometry x="560" y="230" width="120" height="30" as="geometry" />
        </mxCell>
        <mxCell id="SiMttqf032CdRBXON2kf-40" style="edgeStyle=orthogonalEdgeStyle;rounded=0;orthogonalLoop=1;jettySize=auto;html=1;entryX=0.5;entryY=0;entryDx=0;entryDy=0;" parent="1" source="SiMttqf032CdRBXON2kf-34" target="SiMttqf032CdRBXON2kf-39" edge="1">
          <mxGeometry relative="1" as="geometry" />
        </mxCell>
        <mxCell id="SiMttqf032CdRBXON2kf-34" value="verify payment" style="rounded=0;whiteSpace=wrap;html=1;fillColor=#FFD966;" parent="1" vertex="1">
          <mxGeometry x="610" y="340" width="120" height="60" as="geometry" />
        </mxCell>
        <mxCell id="SiMttqf032CdRBXON2kf-36" value="pay details" style="text;html=1;align=center;verticalAlign=middle;resizable=0;points=[];autosize=1;strokeColor=none;fillColor=none;" parent="1" vertex="1">
          <mxGeometry x="660" y="280" width="80" height="30" as="geometry" />
        </mxCell>
        <mxCell id="SiMttqf032CdRBXON2kf-37" style="edgeStyle=orthogonalEdgeStyle;rounded=0;orthogonalLoop=1;jettySize=auto;html=1;exitX=0.25;exitY=1;exitDx=0;exitDy=0;entryX=0;entryY=0.5;entryDx=0;entryDy=0;" parent="1" source="SiMttqf032CdRBXON2kf-34" target="SiMttqf032CdRBXON2kf-34" edge="1">
          <mxGeometry relative="1" as="geometry">
            <Array as="points">
              <mxPoint x="640" y="430" />
              <mxPoint x="560" y="430" />
              <mxPoint x="560" y="370" />
            </Array>
          </mxGeometry>
        </mxCell>
        <mxCell id="SiMttqf032CdRBXON2kf-38" value="&lt;div&gt;verification failed&lt;/div&gt;&lt;div&gt;{failure threshold&lt;/div&gt;&lt;div&gt;&amp;lt;= 3} &lt;br&gt;&lt;/div&gt;" style="text;html=1;align=center;verticalAlign=middle;resizable=0;points=[];autosize=1;strokeColor=none;fillColor=none;" parent="1" vertex="1">
          <mxGeometry x="450" y="360" width="110" height="60" as="geometry" />
        </mxCell>
        <mxCell id="SiMttqf032CdRBXON2kf-43" style="edgeStyle=orthogonalEdgeStyle;rounded=0;orthogonalLoop=1;jettySize=auto;html=1;entryX=0.5;entryY=0;entryDx=0;entryDy=0;" parent="1" source="SiMttqf032CdRBXON2kf-39" target="SiMttqf032CdRBXON2kf-42" edge="1">
          <mxGeometry relative="1" as="geometry" />
        </mxCell>
        <mxCell id="SiMttqf032CdRBXON2kf-39" value="contract approved" style="rounded=0;whiteSpace=wrap;html=1;fillColor=#FFD966;" parent="1" vertex="1">
          <mxGeometry x="610" y="460" width="120" height="60" as="geometry" />
        </mxCell>
        <mxCell id="SiMttqf032CdRBXON2kf-41" value="payment successful" style="text;html=1;align=center;verticalAlign=middle;resizable=0;points=[];autosize=1;strokeColor=none;fillColor=none;" parent="1" vertex="1">
          <mxGeometry x="660" y="410" width="130" height="30" as="geometry" />
        </mxCell>
        <mxCell id="SiMttqf032CdRBXON2kf-42" value="" style="ellipse;html=1;shape=endState;fillColor=#000000;strokeColor=#ff0000;" parent="1" vertex="1">
          <mxGeometry x="655" y="555" width="30" height="30" as="geometry" />
        </mxCell>
      </root>
    </mxGraphModel>
  </diagram>
</mxfile>
